<svg xmlns="http://www.w3.org/2000/svg" width="800" height="1124" viewBox="0 0 91.44 128.5">
  <style>
    .lbl { font-family: sans-serif; font-size: 2.4px; fill: #000; text-anchor: middle; font-weight: bold; }
    .lbl-sm { font-family: sans-serif; font-size: 1.5px; fill: #000; text-anchor: middle; }
    .lbl-jack { font-family: sans-serif; font-size: 1.1px; fill: #000; text-anchor: middle; }
    .lbl-brand { font-family: sans-serif; font-size: 3.5px; fill: #000; text-anchor: start; font-weight: bold; }
    .lbl-model { font-family: sans-serif; font-size: 2px; fill: #000; text-anchor: start; font-weight: bold; }
    .btn-lbl { font-family: sans-serif; font-size: 1.3px; fill: #000; text-anchor: middle; }
  </style>

  <!-- Panel outline -->
  <rect width="91.44" height="128.5" fill="#fff" stroke="#000" stroke-width="0.5"/>

  <!-- Corner screws -->
  <circle cx="4" cy="4" r="2.2" fill="none" stroke="#000" stroke-width="0.4"/>
  <line x1="2.5" y1="4" x2="5.5" y2="4" stroke="#000" stroke-width="0.4"/>
  <circle cx="87.44" cy="4" r="2.2" fill="none" stroke="#000" stroke-width="0.4"/>
  <line x1="85.94" y1="4" x2="88.94" y2="4" stroke="#000" stroke-width="0.4"/>
  <circle cx="4" cy="124.5" r="2.2" fill="none" stroke="#000" stroke-width="0.4"/>
  <line x1="2.5" y1="124.5" x2="5.5" y2="124.5" stroke="#000" stroke-width="0.4"/>
  <circle cx="87.44" cy="124.5" r="2.2" fill="none" stroke="#000" stroke-width="0.4"/>
  <line x1="85.94" y1="124.5" x2="88.94" y2="124.5" stroke="#000" stroke-width="0.4"/>

  <!-- Branding -->
  <text x="3" y="10" class="lbl-brand">KORG</text>
  <text x="3" y="13" class="lbl-model">nano KONTROL</text>

  <!-- ================================================================ -->
  <!-- GRID: 5 columns x 2 rows, all segments equal                    -->
  <!--   Column width: 17.5                                            -->
  <!--   x positions: 2, 19.5, 37, 54.5, 72                           -->
  <!--   cx positions: 10.75, 28.25, 45.75, 63.25, 80.75              -->
  <!--   Top row: y=15, h=46 (to y=61)                                -->
  <!--   Bottom row: y=64, h=46 (to y=110)                            -->
  <!--   Fader midpoint top: 42, bottom: 91                            -->
  <!-- ================================================================ -->

  <!-- ================================================================ -->
  <!-- TOP ROW                                                          -->
  <!-- ================================================================ -->

  <!-- === TRANSPORT (col 1: x=2, cx=10.75) === -->
  <rect x="2" y="15" width="17.5" height="46" rx="1.5" fill="none" stroke="#000" stroke-width="0.4"/>

  <!-- Scene button + indicators (top of transport) -->
  <rect x="3.5" y="17" width="14.5" height="3.8" rx="0.6" fill="none" stroke="#000" stroke-width="0.3"/>
  <text x="10.75" y="19.5" class="lbl-sm">SCENE</text>
  <circle cx="5" cy="23" r="0.8" fill="#000"/>
  <circle cx="8" cy="23" r="0.8" fill="none" stroke="#000" stroke-width="0.3"/>
  <circle cx="11" cy="23" r="0.8" fill="none" stroke="#000" stroke-width="0.3"/>
  <circle cx="14" cy="23" r="0.8" fill="none" stroke="#000" stroke-width="0.3"/>
  <text x="5" y="25" style="font-family:sans-serif;font-size:1.1px;fill:#000;text-anchor:middle;">1</text>
  <text x="8" y="25" style="font-family:sans-serif;font-size:1.1px;fill:#000;text-anchor:middle;">2</text>
  <text x="11" y="25" style="font-family:sans-serif;font-size:1.1px;fill:#000;text-anchor:middle;">3</text>
  <text x="14" y="25" style="font-family:sans-serif;font-size:1.1px;fill:#000;text-anchor:middle;">4</text>

  <!-- Transport buttons (3 cols x 2 rows) -->
  <rect x="3.5" y="28" width="4.5" height="4.5" rx="0.6" fill="none" stroke="#000" stroke-width="0.3"/>
  <text x="5.75" y="30.8" class="lbl-sm">REW</text>
  <rect x="8.5" y="28" width="4.5" height="4.5" rx="0.6" fill="none" stroke="#000" stroke-width="0.3"/>
  <text x="10.75" y="30.8" class="lbl-sm">PLAY</text>
  <rect x="13.5" y="28" width="4.5" height="4.5" rx="0.6" fill="none" stroke="#000" stroke-width="0.3"/>
  <text x="15.75" y="30.8" class="lbl-sm">FF</text>
  <rect x="3.5" y="34" width="4.5" height="4.5" rx="0.6" fill="none" stroke="#000" stroke-width="0.3"/>
  <text x="5.75" y="36.8" class="lbl-sm">LOOP</text>
  <rect x="8.5" y="34" width="4.5" height="4.5" rx="0.6" fill="none" stroke="#000" stroke-width="0.3"/>
  <text x="10.75" y="36.8" class="lbl-sm">STOP</text>
  <rect x="13.5" y="34" width="4.5" height="4.5" rx="0.6" fill="none" stroke="#000" stroke-width="0.3"/>
  <text x="15.75" y="36.8" class="lbl-sm">REC</text>

  <!-- Transport jacks (3 cols x 2 rows) -->
  <text x="5.75" y="41" class="lbl-jack">REW</text>
  <circle cx="5.75" cy="42.5" r="2" fill="none" stroke="#000" stroke-width="0.4"/>
  <text x="10.75" y="41" class="lbl-jack">PLAY</text>
  <circle cx="10.75" cy="42.5" r="2" fill="none" stroke="#000" stroke-width="0.4"/>
  <text x="15.75" y="41" class="lbl-jack">FF</text>
  <circle cx="15.75" cy="42.5" r="2" fill="none" stroke="#000" stroke-width="0.4"/>
  <text x="5.75" y="47.5" class="lbl-jack">LOOP</text>
  <circle cx="5.75" cy="49" r="2" fill="none" stroke="#000" stroke-width="0.4"/>
  <text x="10.75" y="47.5" class="lbl-jack">STOP</text>
  <circle cx="10.75" cy="49" r="2" fill="none" stroke="#000" stroke-width="0.4"/>
  <text x="15.75" y="47.5" class="lbl-jack">REC</text>
  <circle cx="15.75" cy="49" r="2" fill="none" stroke="#000" stroke-width="0.4"/>

  <!-- Scene jack -->
  <text x="10.75" y="53.5" class="lbl-jack">SCN</text>
  <circle cx="10.75" cy="55" r="2" fill="none" stroke="#000" stroke-width="0.4"/>

  <!-- === CHANNEL 1 (col 2: x=19.5, cx=28.25) === -->
  <rect x="19.5" y="15" width="17.5" height="46" rx="1.5" fill="none" stroke="#000" stroke-width="0.4"/>
  <text x="28.25" y="18" class="lbl">1</text>
  <circle cx="28.25" cy="24" r="3.5" fill="none" stroke="#000" stroke-width="0.4"/>
  <line x1="28.25" y1="24" x2="30.25" y2="22" stroke="#000" stroke-width="0.5" stroke-linecap="round"/>
  <rect x="27.25" y="29" width="2" height="26" rx="0.5" fill="none" stroke="#000" stroke-width="0.4"/>
  <rect x="25.75" y="39" width="5" height="3" rx="0.7" fill="none" stroke="#000" stroke-width="0.4"/>
  <!-- Buttons centered on fader midpoint 42 -->
  <rect x="21" y="37" width="3.5" height="3.5" rx="0.6" fill="none" stroke="#000" stroke-width="0.3"/>
  <text x="22.75" y="39.3" class="btn-lbl">A</text>
  <rect x="21" y="43.5" width="3.5" height="3.5" rx="0.6" fill="none" stroke="#000" stroke-width="0.3"/>
  <text x="22.75" y="45.8" class="btn-lbl">B</text>
  <!-- Jacks centered on fader midpoint 42 -->
  <text x="33.5" y="31" class="lbl-jack">K</text>
  <circle cx="33.5" cy="32.25" r="2" fill="none" stroke="#000" stroke-width="0.4"/>
  <text x="33.5" y="37.5" class="lbl-jack">F</text>
  <circle cx="33.5" cy="38.75" r="2" fill="none" stroke="#000" stroke-width="0.4"/>
  <text x="33.5" y="44" class="lbl-jack">A</text>
  <circle cx="33.5" cy="45.25" r="2" fill="none" stroke="#000" stroke-width="0.4"/>
  <text x="33.5" y="50.5" class="lbl-jack">B</text>
  <circle cx="33.5" cy="51.75" r="2" fill="none" stroke="#000" stroke-width="0.4"/>

  <!-- === CHANNEL 2 (col 3: x=37, cx=45.75) === -->
  <rect x="37" y="15" width="17.5" height="46" rx="1.5" fill="none" stroke="#000" stroke-width="0.4"/>
  <text x="45.75" y="18" class="lbl">2</text>
  <circle cx="45.75" cy="24" r="3.5" fill="none" stroke="#000" stroke-width="0.4"/>
  <line x1="45.75" y1="24" x2="43.75" y2="22" stroke="#000" stroke-width="0.5" stroke-linecap="round"/>
  <rect x="44.75" y="29" width="2" height="26" rx="0.5" fill="none" stroke="#000" stroke-width="0.4"/>
  <rect x="43.25" y="42" width="5" height="3" rx="0.7" fill="none" stroke="#000" stroke-width="0.4"/>
  <rect x="38.5" y="37" width="3.5" height="3.5" rx="0.6" fill="none" stroke="#000" stroke-width="0.3"/>
  <text x="40.25" y="39.3" class="btn-lbl">A</text>
  <rect x="38.5" y="43.5" width="3.5" height="3.5" rx="0.6" fill="none" stroke="#000" stroke-width="0.3"/>
  <text x="40.25" y="45.8" class="btn-lbl">B</text>
  <text x="51" y="31" class="lbl-jack">K</text>
  <circle cx="51" cy="32.25" r="2" fill="none" stroke="#000" stroke-width="0.4"/>
  <text x="51" y="37.5" class="lbl-jack">F</text>
  <circle cx="51" cy="38.75" r="2" fill="none" stroke="#000" stroke-width="0.4"/>
  <text x="51" y="44" class="lbl-jack">A</text>
  <circle cx="51" cy="45.25" r="2" fill="none" stroke="#000" stroke-width="0.4"/>
  <text x="51" y="50.5" class="lbl-jack">B</text>
  <circle cx="51" cy="51.75" r="2" fill="none" stroke="#000" stroke-width="0.4"/>

  <!-- === CHANNEL 3 (col 4: x=54.5, cx=63.25) === -->
  <rect x="54.5" y="15" width="17.5" height="46" rx="1.5" fill="none" stroke="#000" stroke-width="0.4"/>
  <text x="63.25" y="18" class="lbl">3</text>
  <circle cx="63.25" cy="24" r="3.5" fill="none" stroke="#000" stroke-width="0.4"/>
  <line x1="63.25" y1="24" x2="65.25" y2="22" stroke="#000" stroke-width="0.5" stroke-linecap="round"/>
  <rect x="62.25" y="29" width="2" height="26" rx="0.5" fill="none" stroke="#000" stroke-width="0.4"/>
  <rect x="60.75" y="35" width="5" height="3" rx="0.7" fill="none" stroke="#000" stroke-width="0.4"/>
  <rect x="56" y="37" width="3.5" height="3.5" rx="0.6" fill="none" stroke="#000" stroke-width="0.3"/>
  <text x="57.75" y="39.3" class="btn-lbl">A</text>
  <rect x="56" y="43.5" width="3.5" height="3.5" rx="0.6" fill="none" stroke="#000" stroke-width="0.3"/>
  <text x="57.75" y="45.8" class="btn-lbl">B</text>
  <text x="68.5" y="31" class="lbl-jack">K</text>
  <circle cx="68.5" cy="32.25" r="2" fill="none" stroke="#000" stroke-width="0.4"/>
  <text x="68.5" y="37.5" class="lbl-jack">F</text>
  <circle cx="68.5" cy="38.75" r="2" fill="none" stroke="#000" stroke-width="0.4"/>
  <text x="68.5" y="44" class="lbl-jack">A</text>
  <circle cx="68.5" cy="45.25" r="2" fill="none" stroke="#000" stroke-width="0.4"/>
  <text x="68.5" y="50.5" class="lbl-jack">B</text>
  <circle cx="68.5" cy="51.75" r="2" fill="none" stroke="#000" stroke-width="0.4"/>

  <!-- === CHANNEL 4 (col 5: x=72, cx=80.75) === -->
  <rect x="72" y="15" width="17.5" height="46" rx="1.5" fill="none" stroke="#000" stroke-width="0.4"/>
  <text x="80.75" y="18" class="lbl">4</text>
  <circle cx="80.75" cy="24" r="3.5" fill="none" stroke="#000" stroke-width="0.4"/>
  <line x1="80.75" y1="24" x2="78.75" y2="22" stroke="#000" stroke-width="0.5" stroke-linecap="round"/>
  <rect x="79.75" y="29" width="2" height="26" rx="0.5" fill="none" stroke="#000" stroke-width="0.4"/>
  <rect x="78.25" y="46" width="5" height="3" rx="0.7" fill="none" stroke="#000" stroke-width="0.4"/>
  <rect x="73.5" y="37" width="3.5" height="3.5" rx="0.6" fill="none" stroke="#000" stroke-width="0.3"/>
  <text x="75.25" y="39.3" class="btn-lbl">A</text>
  <rect x="73.5" y="43.5" width="3.5" height="3.5" rx="0.6" fill="none" stroke="#000" stroke-width="0.3"/>
  <text x="75.25" y="45.8" class="btn-lbl">B</text>
  <text x="86" y="31" class="lbl-jack">K</text>
  <circle cx="86" cy="32.25" r="2" fill="none" stroke="#000" stroke-width="0.4"/>
  <text x="86" y="37.5" class="lbl-jack">F</text>
  <circle cx="86" cy="38.75" r="2" fill="none" stroke="#000" stroke-width="0.4"/>
  <text x="86" y="44" class="lbl-jack">A</text>
  <circle cx="86" cy="45.25" r="2" fill="none" stroke="#000" stroke-width="0.4"/>
  <text x="86" y="50.5" class="lbl-jack">B</text>
  <circle cx="86" cy="51.75" r="2" fill="none" stroke="#000" stroke-width="0.4"/>

  <!-- ================================================================ -->
  <!-- Divider                                                          -->
  <!-- ================================================================ -->
  <line x1="2" y1="62.5" x2="89.5" y2="62.5" stroke="#000" stroke-width="0.4"/>

  <!-- ================================================================ -->
  <!-- BOTTOM ROW                                                       -->
  <!-- ================================================================ -->

  <!-- === CHANNEL 5 (col 1: x=2, cx=10.75) === -->
  <rect x="2" y="64" width="17.5" height="46" rx="1.5" fill="none" stroke="#000" stroke-width="0.4"/>
  <text x="10.75" y="67" class="lbl">5</text>
  <circle cx="10.75" cy="73" r="3.5" fill="none" stroke="#000" stroke-width="0.4"/>
  <line x1="10.75" y1="73" x2="12.75" y2="71" stroke="#000" stroke-width="0.5" stroke-linecap="round"/>
  <rect x="9.75" y="78" width="2" height="26" rx="0.5" fill="none" stroke="#000" stroke-width="0.4"/>
  <rect x="8.25" y="88" width="5" height="3" rx="0.7" fill="none" stroke="#000" stroke-width="0.4"/>
  <rect x="3.5" y="86" width="3.5" height="3.5" rx="0.6" fill="none" stroke="#000" stroke-width="0.3"/>
  <text x="5.25" y="88.3" class="btn-lbl">A</text>
  <rect x="3.5" y="92.5" width="3.5" height="3.5" rx="0.6" fill="none" stroke="#000" stroke-width="0.3"/>
  <text x="5.25" y="94.8" class="btn-lbl">B</text>
  <text x="16" y="80" class="lbl-jack">K</text>
  <circle cx="16" cy="81.25" r="2" fill="none" stroke="#000" stroke-width="0.4"/>
  <text x="16" y="86.5" class="lbl-jack">F</text>
  <circle cx="16" cy="87.75" r="2" fill="none" stroke="#000" stroke-width="0.4"/>
  <text x="16" y="93" class="lbl-jack">A</text>
  <circle cx="16" cy="94.25" r="2" fill="none" stroke="#000" stroke-width="0.4"/>
  <text x="16" y="99.5" class="lbl-jack">B</text>
  <circle cx="16" cy="100.75" r="2" fill="none" stroke="#000" stroke-width="0.4"/>

  <!-- === CHANNEL 6 (col 2: x=19.5, cx=28.25) === -->
  <rect x="19.5" y="64" width="17.5" height="46" rx="1.5" fill="none" stroke="#000" stroke-width="0.4"/>
  <text x="28.25" y="67" class="lbl">6</text>
  <circle cx="28.25" cy="73" r="3.5" fill="none" stroke="#000" stroke-width="0.4"/>
  <line x1="28.25" y1="73" x2="26.25" y2="71" stroke="#000" stroke-width="0.5" stroke-linecap="round"/>
  <rect x="27.25" y="78" width="2" height="26" rx="0.5" fill="none" stroke="#000" stroke-width="0.4"/>
  <rect x="25.75" y="92" width="5" height="3" rx="0.7" fill="none" stroke="#000" stroke-width="0.4"/>
  <rect x="21" y="86" width="3.5" height="3.5" rx="0.6" fill="none" stroke="#000" stroke-width="0.3"/>
  <text x="22.75" y="88.3" class="btn-lbl">A</text>
  <rect x="21" y="92.5" width="3.5" height="3.5" rx="0.6" fill="none" stroke="#000" stroke-width="0.3"/>
  <text x="22.75" y="94.8" class="btn-lbl">B</text>
  <text x="33.5" y="80" class="lbl-jack">K</text>
  <circle cx="33.5" cy="81.25" r="2" fill="none" stroke="#000" stroke-width="0.4"/>
  <text x="33.5" y="86.5" class="lbl-jack">F</text>
  <circle cx="33.5" cy="87.75" r="2" fill="none" stroke="#000" stroke-width="0.4"/>
  <text x="33.5" y="93" class="lbl-jack">A</text>
  <circle cx="33.5" cy="94.25" r="2" fill="none" stroke="#000" stroke-width="0.4"/>
  <text x="33.5" y="99.5" class="lbl-jack">B</text>
  <circle cx="33.5" cy="100.75" r="2" fill="none" stroke="#000" stroke-width="0.4"/>

  <!-- === CHANNEL 7 (col 3: x=37, cx=45.75) === -->
  <rect x="37" y="64" width="17.5" height="46" rx="1.5" fill="none" stroke="#000" stroke-width="0.4"/>
  <text x="45.75" y="67" class="lbl">7</text>
  <circle cx="45.75" cy="73" r="3.5" fill="none" stroke="#000" stroke-width="0.4"/>
  <line x1="45.75" y1="73" x2="47.75" y2="71" stroke="#000" stroke-width="0.5" stroke-linecap="round"/>
  <rect x="44.75" y="78" width="2" height="26" rx="0.5" fill="none" stroke="#000" stroke-width="0.4"/>
  <rect x="43.25" y="82" width="5" height="3" rx="0.7" fill="none" stroke="#000" stroke-width="0.4"/>
  <rect x="38.5" y="86" width="3.5" height="3.5" rx="0.6" fill="none" stroke="#000" stroke-width="0.3"/>
  <text x="40.25" y="88.3" class="btn-lbl">A</text>
  <rect x="38.5" y="92.5" width="3.5" height="3.5" rx="0.6" fill="none" stroke="#000" stroke-width="0.3"/>
  <text x="40.25" y="94.8" class="btn-lbl">B</text>
  <text x="51" y="80" class="lbl-jack">K</text>
  <circle cx="51" cy="81.25" r="2" fill="none" stroke="#000" stroke-width="0.4"/>
  <text x="51" y="86.5" class="lbl-jack">F</text>
  <circle cx="51" cy="87.75" r="2" fill="none" stroke="#000" stroke-width="0.4"/>
  <text x="51" y="93" class="lbl-jack">A</text>
  <circle cx="51" cy="94.25" r="2" fill="none" stroke="#000" stroke-width="0.4"/>
  <text x="51" y="99.5" class="lbl-jack">B</text>
  <circle cx="51" cy="100.75" r="2" fill="none" stroke="#000" stroke-width="0.4"/>

  <!-- === CHANNEL 8 (col 4: x=54.5, cx=63.25) === -->
  <rect x="54.5" y="64" width="17.5" height="46" rx="1.5" fill="none" stroke="#000" stroke-width="0.4"/>
  <text x="63.25" y="67" class="lbl">8</text>
  <circle cx="63.25" cy="73" r="3.5" fill="none" stroke="#000" stroke-width="0.4"/>
  <line x1="63.25" y1="73" x2="61.25" y2="71" stroke="#000" stroke-width="0.5" stroke-linecap="round"/>
  <rect x="62.25" y="78" width="2" height="26" rx="0.5" fill="none" stroke="#000" stroke-width="0.4"/>
  <rect x="60.75" y="96" width="5" height="3" rx="0.7" fill="none" stroke="#000" stroke-width="0.4"/>
  <rect x="56" y="86" width="3.5" height="3.5" rx="0.6" fill="none" stroke="#000" stroke-width="0.3"/>
  <text x="57.75" y="88.3" class="btn-lbl">A</text>
  <rect x="56" y="92.5" width="3.5" height="3.5" rx="0.6" fill="none" stroke="#000" stroke-width="0.3"/>
  <text x="57.75" y="94.8" class="btn-lbl">B</text>
  <text x="68.5" y="80" class="lbl-jack">K</text>
  <circle cx="68.5" cy="81.25" r="2" fill="none" stroke="#000" stroke-width="0.4"/>
  <text x="68.5" y="86.5" class="lbl-jack">F</text>
  <circle cx="68.5" cy="87.75" r="2" fill="none" stroke="#000" stroke-width="0.4"/>
  <text x="68.5" y="93" class="lbl-jack">A</text>
  <circle cx="68.5" cy="94.25" r="2" fill="none" stroke="#000" stroke-width="0.4"/>
  <text x="68.5" y="99.5" class="lbl-jack">B</text>
  <circle cx="68.5" cy="100.75" r="2" fill="none" stroke="#000" stroke-width="0.4"/>

  <!-- === CHANNEL 9 (col 5: x=72, cx=80.75) === -->
  <rect x="72" y="64" width="17.5" height="46" rx="1.5" fill="none" stroke="#000" stroke-width="0.4"/>
  <text x="80.75" y="67" class="lbl">9</text>
  <circle cx="80.75" cy="73" r="3.5" fill="none" stroke="#000" stroke-width="0.4"/>
  <line x1="80.75" y1="73" x2="82.75" y2="71" stroke="#000" stroke-width="0.5" stroke-linecap="round"/>
  <rect x="79.75" y="78" width="2" height="26" rx="0.5" fill="none" stroke="#000" stroke-width="0.4"/>
  <rect x="78.25" y="99" width="5" height="3" rx="0.7" fill="none" stroke="#000" stroke-width="0.4"/>
  <rect x="73.5" y="86" width="3.5" height="3.5" rx="0.6" fill="none" stroke="#000" stroke-width="0.3"/>
  <text x="75.25" y="88.3" class="btn-lbl">A</text>
  <rect x="73.5" y="92.5" width="3.5" height="3.5" rx="0.6" fill="none" stroke="#000" stroke-width="0.3"/>
  <text x="75.25" y="94.8" class="btn-lbl">B</text>
  <text x="86" y="80" class="lbl-jack">K</text>
  <circle cx="86" cy="81.25" r="2" fill="none" stroke="#000" stroke-width="0.4"/>
  <text x="86" y="86.5" class="lbl-jack">F</text>
  <circle cx="86" cy="87.75" r="2" fill="none" stroke="#000" stroke-width="0.4"/>
  <text x="86" y="93" class="lbl-jack">A</text>
  <circle cx="86" cy="94.25" r="2" fill="none" stroke="#000" stroke-width="0.4"/>
  <text x="86" y="99.5" class="lbl-jack">B</text>
  <circle cx="86" cy="100.75" r="2" fill="none" stroke="#000" stroke-width="0.4"/>

</svg>
