<svg xmlns="http://www.w3.org/2000/svg" width="800" height="1124" viewBox="0 0 91.44 128.5">
  <defs>
    <radialGradient id="knob" cx="40%" cy="35%" r="50%">
      <stop offset="0%" stop-color="#fff"/>
      <stop offset="100%" stop-color="#ccc"/>
    </radialGradient>
    <radialGradient id="jack" cx="40%" cy="35%" r="50%">
      <stop offset="0%" stop-color="#888"/>
      <stop offset="60%" stop-color="#555"/>
      <stop offset="100%" stop-color="#333"/>
    </radialGradient>
    <radialGradient id="jackhole" cx="50%" cy="50%" r="50%">
      <stop offset="0%" stop-color="#111"/>
      <stop offset="100%" stop-color="#000"/>
    </radialGradient>
    <linearGradient id="fadertrack" x1="0" y1="0" x2="1" y2="0">
      <stop offset="0%" stop-color="#222"/>
      <stop offset="50%" stop-color="#444"/>
      <stop offset="100%" stop-color="#222"/>
    </linearGradient>
  </defs>

  <style>
    .lbl { font-family: sans-serif; font-size: 2.4px; fill: #335; text-anchor: middle; font-weight: bold; }
    .lbl-sm { font-family: sans-serif; font-size: 1.6px; fill: #446; text-anchor: middle; }
    .lbl-jack { font-family: sans-serif; font-size: 1.1px; fill: #557; text-anchor: middle; }
    .lbl-brand { font-family: sans-serif; font-size: 3.5px; fill: #335; text-anchor: start; font-weight: bold; }
    .lbl-model { font-family: sans-serif; font-size: 2px; fill: #4477cc; text-anchor: start; font-weight: bold; }
    .btn-lbl { font-family: sans-serif; font-size: 1.3px; fill: #fff; text-anchor: middle; }
  </style>

  <!-- Panel background (silver) -->
  <rect width="91.44" height="128.5" fill="#d8dce0"/>
  <rect x="0.5" y="0.5" width="90.44" height="127.5" rx="1" fill="none" stroke="#bbb" stroke-width="0.5"/>
  <rect x="0" y="0" width="91.44" height="1" fill="#eee"/>
  <rect x="0" y="127.5" width="91.44" height="1" fill="#aaa"/>

  <!-- Corner screws -->
  <circle cx="4" cy="4" r="2.2" fill="#bbb" stroke="#999" stroke-width="0.3"/>
  <line x1="2.5" y1="4" x2="5.5" y2="4" stroke="#999" stroke-width="0.4"/>
  <circle cx="87.44" cy="4" r="2.2" fill="#bbb" stroke="#999" stroke-width="0.3"/>
  <line x1="85.94" y1="4" x2="88.94" y2="4" stroke="#999" stroke-width="0.4"/>
  <circle cx="4" cy="124.5" r="2.2" fill="#bbb" stroke="#999" stroke-width="0.3"/>
  <line x1="2.5" y1="124.5" x2="5.5" y2="124.5" stroke="#999" stroke-width="0.4"/>
  <circle cx="87.44" cy="124.5" r="2.2" fill="#bbb" stroke="#999" stroke-width="0.3"/>
  <line x1="85.94" y1="124.5" x2="88.94" y2="124.5" stroke="#999" stroke-width="0.4"/>

  <!-- Branding -->
  <text x="3" y="10" class="lbl-brand">KORG</text>
  <text x="3" y="13" class="lbl-model">nano KONTROL</text>

  <!-- ================================================================ -->
  <!-- TOP HALF: Transport + Channels 1-4   (y = 15 to 61)             -->
  <!-- ================================================================ -->

  <!-- === TRANSPORT SECTION (x=2, w=16) === -->
  <rect x="2" y="15" width="16" height="46" rx="1.5" fill="#4a7abf" fill-opacity="0.2"/>

  <!-- Transport buttons: 3 cols x 2 rows -->
  <rect x="3" y="16" width="4.2" height="4" rx="0.8" fill="#ddd" stroke="#bbb" stroke-width="0.3"/>
  <text x="5.1" y="18.7" class="lbl-sm">REW</text>
  <rect x="7.9" y="16" width="4.2" height="4" rx="0.8" fill="#ddd" stroke="#bbb" stroke-width="0.3"/>
  <text x="10" y="18.7" class="lbl-sm">PLAY</text>
  <rect x="12.8" y="16" width="4.2" height="4" rx="0.8" fill="#ddd" stroke="#bbb" stroke-width="0.3"/>
  <text x="14.9" y="18.7" class="lbl-sm">FF</text>
  <rect x="3" y="21" width="4.2" height="4" rx="0.8" fill="#ddd" stroke="#bbb" stroke-width="0.3"/>
  <text x="5.1" y="23.7" class="lbl-sm">LOOP</text>
  <rect x="7.9" y="21" width="4.2" height="4" rx="0.8" fill="#ddd" stroke="#bbb" stroke-width="0.3"/>
  <text x="10" y="23.7" class="lbl-sm">STOP</text>
  <rect x="12.8" y="21" width="4.2" height="4" rx="0.8" fill="#ddd" stroke="#bbb" stroke-width="0.3"/>
  <text x="14.9" y="23.7" style="font-family:sans-serif;font-size:1.6px;fill:#cc3333;text-anchor:middle;">REC</text>

  <!-- Transport jacks (3 cols x 2 rows) -->
  <circle cx="5.1" cy="28.5" r="2.2" fill="url(#jack)" stroke="#444" stroke-width="0.3"/>
  <circle cx="5.1" cy="28.5" r="1" fill="url(#jackhole)"/>
  <circle cx="10" cy="28.5" r="2.2" fill="url(#jack)" stroke="#444" stroke-width="0.3"/>
  <circle cx="10" cy="28.5" r="1" fill="url(#jackhole)"/>
  <circle cx="14.9" cy="28.5" r="2.2" fill="url(#jack)" stroke="#444" stroke-width="0.3"/>
  <circle cx="14.9" cy="28.5" r="1" fill="url(#jackhole)"/>
  <circle cx="5.1" cy="34" r="2.2" fill="url(#jack)" stroke="#444" stroke-width="0.3"/>
  <circle cx="5.1" cy="34" r="1" fill="url(#jackhole)"/>
  <circle cx="10" cy="34" r="2.2" fill="url(#jack)" stroke="#444" stroke-width="0.3"/>
  <circle cx="10" cy="34" r="1" fill="url(#jackhole)"/>
  <circle cx="14.9" cy="34" r="2.2" fill="url(#jack)" stroke="#444" stroke-width="0.3"/>
  <circle cx="14.9" cy="34" r="1" fill="url(#jackhole)"/>

  <!-- Scene -->
  <rect x="3" y="38" width="14" height="4" rx="0.8" fill="#ddd" stroke="#bbb" stroke-width="0.3"/>
  <text x="10" y="40.7" class="lbl-sm">SCENE</text>
  <circle cx="4.5" cy="44" r="0.8" fill="#cc4444"/>
  <text x="4.5" y="46" style="font-family:sans-serif;font-size:1.1px;fill:#557;text-anchor:middle;">1</text>
  <circle cx="7.5" cy="44" r="0.8" fill="#884444" fill-opacity="0.4"/>
  <text x="7.5" y="46" style="font-family:sans-serif;font-size:1.1px;fill:#557;text-anchor:middle;">2</text>
  <circle cx="10.5" cy="44" r="0.8" fill="#884444" fill-opacity="0.4"/>
  <text x="10.5" y="46" style="font-family:sans-serif;font-size:1.1px;fill:#557;text-anchor:middle;">3</text>
  <circle cx="13.5" cy="44" r="0.8" fill="#884444" fill-opacity="0.4"/>
  <text x="13.5" y="46" style="font-family:sans-serif;font-size:1.1px;fill:#557;text-anchor:middle;">4</text>
  <circle cx="10" cy="49" r="2.2" fill="url(#jack)" stroke="#444" stroke-width="0.3"/>
  <circle cx="10" cy="49" r="1" fill="url(#jackhole)"/>
  <text x="10" y="47.5" class="lbl-jack">SCN</text>

  <!-- ================================================================ -->
  <!-- CHANNEL STRIP TEMPLATE:                                          -->
  <!--   [number label]                                                 -->
  <!--   [    knob    ]     (centered)                                  -->
  <!--   [A] [fader] [K jack]                                           -->
  <!--   [B] [     ] [F jack]                                           -->
  <!--       [     ] [A jack]                                           -->
  <!--       [ cap ] [B jack]                                           -->
  <!--                                                                  -->
  <!--   Knob + fader fill ~half module height per section              -->
  <!--   A/B buttons stacked LEFT of fader                              -->
  <!--   4 CV jacks stacked RIGHT of fader                              -->
  <!-- ================================================================ -->

  <!-- === CHANNEL 1 (cx=27) === -->
  <rect x="20" y="15" width="14" height="46" rx="1.5" fill="#4a7abf" fill-opacity="0.25"/>
  <text x="27" y="18" class="lbl">1</text>
  <!-- Knob -->
  <circle cx="27" cy="22" r="3.8" fill="url(#knob)" stroke="#aaa" stroke-width="0.3"/>
  <line x1="27" y1="22" x2="29.2" y2="20" stroke="#555" stroke-width="0.5" stroke-linecap="round"/>
  <!-- Fader (center column) -->
  <rect x="26" y="28" width="2" height="28" rx="0.5" fill="url(#fadertrack)"/>
  <rect x="24.5" y="38" width="5" height="3" rx="0.7" fill="#eee" stroke="#ccc" stroke-width="0.3"/>
  <!-- A/B buttons (left of fader, stacked) -->
  <rect x="21" y="31" width="3.5" height="3.5" rx="0.6" fill="#dd6677" stroke="#aa4455" stroke-width="0.2"/>
  <text x="22.75" y="33.3" class="btn-lbl">A</text>
  <rect x="21" y="37" width="3.5" height="3.5" rx="0.6" fill="#dd6677" stroke="#aa4455" stroke-width="0.2"/>
  <text x="22.75" y="39.3" class="btn-lbl">B</text>
  <!-- 4 CV jacks (right of fader, stacked) -->
  <circle cx="31" cy="31.5" r="2" fill="url(#jack)" stroke="#444" stroke-width="0.3"/>
  <circle cx="31" cy="31.5" r="0.9" fill="url(#jackhole)"/>
  <text x="31" y="29.5" class="lbl-jack">K</text>
  <circle cx="31" cy="37.5" r="2" fill="url(#jack)" stroke="#444" stroke-width="0.3"/>
  <circle cx="31" cy="37.5" r="0.9" fill="url(#jackhole)"/>
  <text x="31" y="35.5" class="lbl-jack">F</text>
  <circle cx="31" cy="43.5" r="2" fill="url(#jack)" stroke="#444" stroke-width="0.3"/>
  <circle cx="31" cy="43.5" r="0.9" fill="url(#jackhole)"/>
  <text x="31" y="41.5" class="lbl-jack">A</text>
  <circle cx="31" cy="49.5" r="2" fill="url(#jack)" stroke="#444" stroke-width="0.3"/>
  <circle cx="31" cy="49.5" r="0.9" fill="url(#jackhole)"/>
  <text x="31" y="47.5" class="lbl-jack">B</text>

  <!-- === CHANNEL 2 (cx=44) === -->
  <rect x="37" y="15" width="14" height="46" rx="1.5" fill="#4a7abf" fill-opacity="0.25"/>
  <text x="44" y="18" class="lbl">2</text>
  <circle cx="44" cy="22" r="3.8" fill="url(#knob)" stroke="#aaa" stroke-width="0.3"/>
  <line x1="44" y1="22" x2="42" y2="20" stroke="#555" stroke-width="0.5" stroke-linecap="round"/>
  <rect x="43" y="28" width="2" height="28" rx="0.5" fill="url(#fadertrack)"/>
  <rect x="41.5" y="42" width="5" height="3" rx="0.7" fill="#eee" stroke="#ccc" stroke-width="0.3"/>
  <rect x="38" y="31" width="3.5" height="3.5" rx="0.6" fill="#dd6677" stroke="#aa4455" stroke-width="0.2"/>
  <text x="39.75" y="33.3" class="btn-lbl">A</text>
  <rect x="38" y="37" width="3.5" height="3.5" rx="0.6" fill="#dd6677" stroke="#aa4455" stroke-width="0.2"/>
  <text x="39.75" y="39.3" class="btn-lbl">B</text>
  <circle cx="48" cy="31.5" r="2" fill="url(#jack)" stroke="#444" stroke-width="0.3"/>
  <circle cx="48" cy="31.5" r="0.9" fill="url(#jackhole)"/>
  <text x="48" y="29.5" class="lbl-jack">K</text>
  <circle cx="48" cy="37.5" r="2" fill="url(#jack)" stroke="#444" stroke-width="0.3"/>
  <circle cx="48" cy="37.5" r="0.9" fill="url(#jackhole)"/>
  <text x="48" y="35.5" class="lbl-jack">F</text>
  <circle cx="48" cy="43.5" r="2" fill="url(#jack)" stroke="#444" stroke-width="0.3"/>
  <circle cx="48" cy="43.5" r="0.9" fill="url(#jackhole)"/>
  <text x="48" y="41.5" class="lbl-jack">A</text>
  <circle cx="48" cy="49.5" r="2" fill="url(#jack)" stroke="#444" stroke-width="0.3"/>
  <circle cx="48" cy="49.5" r="0.9" fill="url(#jackhole)"/>
  <text x="48" y="47.5" class="lbl-jack">B</text>

  <!-- === CHANNEL 3 (cx=61) === -->
  <rect x="54" y="15" width="14" height="46" rx="1.5" fill="#4a7abf" fill-opacity="0.25"/>
  <text x="61" y="18" class="lbl">3</text>
  <circle cx="61" cy="22" r="3.8" fill="url(#knob)" stroke="#aaa" stroke-width="0.3"/>
  <line x1="61" y1="22" x2="63.2" y2="20" stroke="#555" stroke-width="0.5" stroke-linecap="round"/>
  <rect x="60" y="28" width="2" height="28" rx="0.5" fill="url(#fadertrack)"/>
  <rect x="58.5" y="34" width="5" height="3" rx="0.7" fill="#eee" stroke="#ccc" stroke-width="0.3"/>
  <rect x="55" y="31" width="3.5" height="3.5" rx="0.6" fill="#dd6677" stroke="#aa4455" stroke-width="0.2"/>
  <text x="56.75" y="33.3" class="btn-lbl">A</text>
  <rect x="55" y="37" width="3.5" height="3.5" rx="0.6" fill="#dd6677" stroke="#aa4455" stroke-width="0.2"/>
  <text x="56.75" y="39.3" class="btn-lbl">B</text>
  <circle cx="65" cy="31.5" r="2" fill="url(#jack)" stroke="#444" stroke-width="0.3"/>
  <circle cx="65" cy="31.5" r="0.9" fill="url(#jackhole)"/>
  <text x="65" y="29.5" class="lbl-jack">K</text>
  <circle cx="65" cy="37.5" r="2" fill="url(#jack)" stroke="#444" stroke-width="0.3"/>
  <circle cx="65" cy="37.5" r="0.9" fill="url(#jackhole)"/>
  <text x="65" y="35.5" class="lbl-jack">F</text>
  <circle cx="65" cy="43.5" r="2" fill="url(#jack)" stroke="#444" stroke-width="0.3"/>
  <circle cx="65" cy="43.5" r="0.9" fill="url(#jackhole)"/>
  <text x="65" y="41.5" class="lbl-jack">A</text>
  <circle cx="65" cy="49.5" r="2" fill="url(#jack)" stroke="#444" stroke-width="0.3"/>
  <circle cx="65" cy="49.5" r="0.9" fill="url(#jackhole)"/>
  <text x="65" y="47.5" class="lbl-jack">B</text>

  <!-- === CHANNEL 4 (cx=78) === -->
  <rect x="71" y="15" width="14" height="46" rx="1.5" fill="#4a7abf" fill-opacity="0.25"/>
  <text x="78" y="18" class="lbl">4</text>
  <circle cx="78" cy="22" r="3.8" fill="url(#knob)" stroke="#aaa" stroke-width="0.3"/>
  <line x1="78" y1="22" x2="76" y2="20" stroke="#555" stroke-width="0.5" stroke-linecap="round"/>
  <rect x="77" y="28" width="2" height="28" rx="0.5" fill="url(#fadertrack)"/>
  <rect x="75.5" y="46" width="5" height="3" rx="0.7" fill="#eee" stroke="#ccc" stroke-width="0.3"/>
  <rect x="72" y="31" width="3.5" height="3.5" rx="0.6" fill="#dd6677" stroke="#aa4455" stroke-width="0.2"/>
  <text x="73.75" y="33.3" class="btn-lbl">A</text>
  <rect x="72" y="37" width="3.5" height="3.5" rx="0.6" fill="#dd6677" stroke="#aa4455" stroke-width="0.2"/>
  <text x="73.75" y="39.3" class="btn-lbl">B</text>
  <circle cx="82" cy="31.5" r="2" fill="url(#jack)" stroke="#444" stroke-width="0.3"/>
  <circle cx="82" cy="31.5" r="0.9" fill="url(#jackhole)"/>
  <text x="82" y="29.5" class="lbl-jack">K</text>
  <circle cx="82" cy="37.5" r="2" fill="url(#jack)" stroke="#444" stroke-width="0.3"/>
  <circle cx="82" cy="37.5" r="0.9" fill="url(#jackhole)"/>
  <text x="82" y="35.5" class="lbl-jack">F</text>
  <circle cx="82" cy="43.5" r="2" fill="url(#jack)" stroke="#444" stroke-width="0.3"/>
  <circle cx="82" cy="43.5" r="0.9" fill="url(#jackhole)"/>
  <text x="82" y="41.5" class="lbl-jack">A</text>
  <circle cx="82" cy="49.5" r="2" fill="url(#jack)" stroke="#444" stroke-width="0.3"/>
  <circle cx="82" cy="49.5" r="0.9" fill="url(#jackhole)"/>
  <text x="82" y="47.5" class="lbl-jack">B</text>

  <!-- ================================================================ -->
  <!-- Divider                                                          -->
  <!-- ================================================================ -->
  <line x1="2" y1="63" x2="89.44" y2="63" stroke="#bbb" stroke-width="0.4"/>

  <!-- ================================================================ -->
  <!-- BOTTOM HALF: Channels 5-9   (y = 64 to 110)                     -->
  <!-- Centers: x = 10, 27, 44, 61, 78                                 -->
  <!-- ================================================================ -->

  <!-- === CHANNEL 5 (cx=10) === -->
  <rect x="3" y="64" width="14" height="46" rx="1.5" fill="#4a7abf" fill-opacity="0.25"/>
  <text x="10" y="67" class="lbl">5</text>
  <circle cx="10" cy="71" r="3.8" fill="url(#knob)" stroke="#aaa" stroke-width="0.3"/>
  <line x1="10" y1="71" x2="12.2" y2="69" stroke="#555" stroke-width="0.5" stroke-linecap="round"/>
  <rect x="9" y="77" width="2" height="28" rx="0.5" fill="url(#fadertrack)"/>
  <rect x="7.5" y="87" width="5" height="3" rx="0.7" fill="#eee" stroke="#ccc" stroke-width="0.3"/>
  <rect x="4" y="80" width="3.5" height="3.5" rx="0.6" fill="#dd6677" stroke="#aa4455" stroke-width="0.2"/>
  <text x="5.75" y="82.3" class="btn-lbl">A</text>
  <rect x="4" y="86" width="3.5" height="3.5" rx="0.6" fill="#dd6677" stroke="#aa4455" stroke-width="0.2"/>
  <text x="5.75" y="88.3" class="btn-lbl">B</text>
  <circle cx="14" cy="80.5" r="2" fill="url(#jack)" stroke="#444" stroke-width="0.3"/>
  <circle cx="14" cy="80.5" r="0.9" fill="url(#jackhole)"/>
  <text x="14" y="78.5" class="lbl-jack">K</text>
  <circle cx="14" cy="86.5" r="2" fill="url(#jack)" stroke="#444" stroke-width="0.3"/>
  <circle cx="14" cy="86.5" r="0.9" fill="url(#jackhole)"/>
  <text x="14" y="84.5" class="lbl-jack">F</text>
  <circle cx="14" cy="92.5" r="2" fill="url(#jack)" stroke="#444" stroke-width="0.3"/>
  <circle cx="14" cy="92.5" r="0.9" fill="url(#jackhole)"/>
  <text x="14" y="90.5" class="lbl-jack">A</text>
  <circle cx="14" cy="98.5" r="2" fill="url(#jack)" stroke="#444" stroke-width="0.3"/>
  <circle cx="14" cy="98.5" r="0.9" fill="url(#jackhole)"/>
  <text x="14" y="96.5" class="lbl-jack">B</text>

  <!-- === CHANNEL 6 (cx=27) === -->
  <rect x="20" y="64" width="14" height="46" rx="1.5" fill="#4a7abf" fill-opacity="0.25"/>
  <text x="27" y="67" class="lbl">6</text>
  <circle cx="27" cy="71" r="3.8" fill="url(#knob)" stroke="#aaa" stroke-width="0.3"/>
  <line x1="27" y1="71" x2="25" y2="69" stroke="#555" stroke-width="0.5" stroke-linecap="round"/>
  <rect x="26" y="77" width="2" height="28" rx="0.5" fill="url(#fadertrack)"/>
  <rect x="24.5" y="92" width="5" height="3" rx="0.7" fill="#eee" stroke="#ccc" stroke-width="0.3"/>
  <rect x="21" y="80" width="3.5" height="3.5" rx="0.6" fill="#dd6677" stroke="#aa4455" stroke-width="0.2"/>
  <text x="22.75" y="82.3" class="btn-lbl">A</text>
  <rect x="21" y="86" width="3.5" height="3.5" rx="0.6" fill="#dd6677" stroke="#aa4455" stroke-width="0.2"/>
  <text x="22.75" y="88.3" class="btn-lbl">B</text>
  <circle cx="31" cy="80.5" r="2" fill="url(#jack)" stroke="#444" stroke-width="0.3"/>
  <circle cx="31" cy="80.5" r="0.9" fill="url(#jackhole)"/>
  <text x="31" y="78.5" class="lbl-jack">K</text>
  <circle cx="31" cy="86.5" r="2" fill="url(#jack)" stroke="#444" stroke-width="0.3"/>
  <circle cx="31" cy="86.5" r="0.9" fill="url(#jackhole)"/>
  <text x="31" y="84.5" class="lbl-jack">F</text>
  <circle cx="31" cy="92.5" r="2" fill="url(#jack)" stroke="#444" stroke-width="0.3"/>
  <circle cx="31" cy="92.5" r="0.9" fill="url(#jackhole)"/>
  <text x="31" y="90.5" class="lbl-jack">A</text>
  <circle cx="31" cy="98.5" r="2" fill="url(#jack)" stroke="#444" stroke-width="0.3"/>
  <circle cx="31" cy="98.5" r="0.9" fill="url(#jackhole)"/>
  <text x="31" y="96.5" class="lbl-jack">B</text>

  <!-- === CHANNEL 7 (cx=44) === -->
  <rect x="37" y="64" width="14" height="46" rx="1.5" fill="#4a7abf" fill-opacity="0.25"/>
  <text x="44" y="67" class="lbl">7</text>
  <circle cx="44" cy="71" r="3.8" fill="url(#knob)" stroke="#aaa" stroke-width="0.3"/>
  <line x1="44" y1="71" x2="46.2" y2="69" stroke="#555" stroke-width="0.5" stroke-linecap="round"/>
  <rect x="43" y="77" width="2" height="28" rx="0.5" fill="url(#fadertrack)"/>
  <rect x="41.5" y="82" width="5" height="3" rx="0.7" fill="#eee" stroke="#ccc" stroke-width="0.3"/>
  <rect x="38" y="80" width="3.5" height="3.5" rx="0.6" fill="#dd6677" stroke="#aa4455" stroke-width="0.2"/>
  <text x="39.75" y="82.3" class="btn-lbl">A</text>
  <rect x="38" y="86" width="3.5" height="3.5" rx="0.6" fill="#dd6677" stroke="#aa4455" stroke-width="0.2"/>
  <text x="39.75" y="88.3" class="btn-lbl">B</text>
  <circle cx="48" cy="80.5" r="2" fill="url(#jack)" stroke="#444" stroke-width="0.3"/>
  <circle cx="48" cy="80.5" r="0.9" fill="url(#jackhole)"/>
  <text x="48" y="78.5" class="lbl-jack">K</text>
  <circle cx="48" cy="86.5" r="2" fill="url(#jack)" stroke="#444" stroke-width="0.3"/>
  <circle cx="48" cy="86.5" r="0.9" fill="url(#jackhole)"/>
  <text x="48" y="84.5" class="lbl-jack">F</text>
  <circle cx="48" cy="92.5" r="2" fill="url(#jack)" stroke="#444" stroke-width="0.3"/>
  <circle cx="48" cy="92.5" r="0.9" fill="url(#jackhole)"/>
  <text x="48" y="90.5" class="lbl-jack">A</text>
  <circle cx="48" cy="98.5" r="2" fill="url(#jack)" stroke="#444" stroke-width="0.3"/>
  <circle cx="48" cy="98.5" r="0.9" fill="url(#jackhole)"/>
  <text x="48" y="96.5" class="lbl-jack">B</text>

  <!-- === CHANNEL 8 (cx=61) === -->
  <rect x="54" y="64" width="14" height="46" rx="1.5" fill="#4a7abf" fill-opacity="0.25"/>
  <text x="61" y="67" class="lbl">8</text>
  <circle cx="61" cy="71" r="3.8" fill="url(#knob)" stroke="#aaa" stroke-width="0.3"/>
  <line x1="61" y1="71" x2="59" y2="69" stroke="#555" stroke-width="0.5" stroke-linecap="round"/>
  <rect x="60" y="77" width="2" height="28" rx="0.5" fill="url(#fadertrack)"/>
  <rect x="58.5" y="97" width="5" height="3" rx="0.7" fill="#eee" stroke="#ccc" stroke-width="0.3"/>
  <rect x="55" y="80" width="3.5" height="3.5" rx="0.6" fill="#dd6677" stroke="#aa4455" stroke-width="0.2"/>
  <text x="56.75" y="82.3" class="btn-lbl">A</text>
  <rect x="55" y="86" width="3.5" height="3.5" rx="0.6" fill="#dd6677" stroke="#aa4455" stroke-width="0.2"/>
  <text x="56.75" y="88.3" class="btn-lbl">B</text>
  <circle cx="65" cy="80.5" r="2" fill="url(#jack)" stroke="#444" stroke-width="0.3"/>
  <circle cx="65" cy="80.5" r="0.9" fill="url(#jackhole)"/>
  <text x="65" y="78.5" class="lbl-jack">K</text>
  <circle cx="65" cy="86.5" r="2" fill="url(#jack)" stroke="#444" stroke-width="0.3"/>
  <circle cx="65" cy="86.5" r="0.9" fill="url(#jackhole)"/>
  <text x="65" y="84.5" class="lbl-jack">F</text>
  <circle cx="65" cy="92.5" r="2" fill="url(#jack)" stroke="#444" stroke-width="0.3"/>
  <circle cx="65" cy="92.5" r="0.9" fill="url(#jackhole)"/>
  <text x="65" y="90.5" class="lbl-jack">A</text>
  <circle cx="65" cy="98.5" r="2" fill="url(#jack)" stroke="#444" stroke-width="0.3"/>
  <circle cx="65" cy="98.5" r="0.9" fill="url(#jackhole)"/>
  <text x="65" y="96.5" class="lbl-jack">B</text>

  <!-- === CHANNEL 9 (cx=78) === -->
  <rect x="71" y="64" width="14" height="46" rx="1.5" fill="#4a7abf" fill-opacity="0.25"/>
  <text x="78" y="67" class="lbl">9</text>
  <circle cx="78" cy="71" r="3.8" fill="url(#knob)" stroke="#aaa" stroke-width="0.3"/>
  <line x1="78" y1="71" x2="80.2" y2="69" stroke="#555" stroke-width="0.5" stroke-linecap="round"/>
  <rect x="77" y="77" width="2" height="28" rx="0.5" fill="url(#fadertrack)"/>
  <rect x="75.5" y="100" width="5" height="3" rx="0.7" fill="#eee" stroke="#ccc" stroke-width="0.3"/>
  <rect x="72" y="80" width="3.5" height="3.5" rx="0.6" fill="#dd6677" stroke="#aa4455" stroke-width="0.2"/>
  <text x="73.75" y="82.3" class="btn-lbl">A</text>
  <rect x="72" y="86" width="3.5" height="3.5" rx="0.6" fill="#dd6677" stroke="#aa4455" stroke-width="0.2"/>
  <text x="73.75" y="88.3" class="btn-lbl">B</text>
  <circle cx="82" cy="80.5" r="2" fill="url(#jack)" stroke="#444" stroke-width="0.3"/>
  <circle cx="82" cy="80.5" r="0.9" fill="url(#jackhole)"/>
  <text x="82" y="78.5" class="lbl-jack">K</text>
  <circle cx="82" cy="86.5" r="2" fill="url(#jack)" stroke="#444" stroke-width="0.3"/>
  <circle cx="82" cy="86.5" r="0.9" fill="url(#jackhole)"/>
  <text x="82" y="84.5" class="lbl-jack">F</text>
  <circle cx="82" cy="92.5" r="2" fill="url(#jack)" stroke="#444" stroke-width="0.3"/>
  <circle cx="82" cy="92.5" r="0.9" fill="url(#jackhole)"/>
  <text x="82" y="90.5" class="lbl-jack">A</text>
  <circle cx="82" cy="98.5" r="2" fill="url(#jack)" stroke="#444" stroke-width="0.3"/>
  <circle cx="82" cy="98.5" r="0.9" fill="url(#jackhole)"/>
  <text x="82" y="96.5" class="lbl-jack">B</text>

</svg>
